<svg version="1.0" xmlns="http://www.w3.org/2000/svg"
 width="128.000000pt" height="128.000000pt" viewBox="0 0 128.000000 128.000000"
 preserveAspectRatio="xMidYMid meet">

<g transform="translate(0.000000,128.000000) scale(0.100000,-0.100000)"
fill="#000000" stroke="none">
<path d="M500 1264 c-109 -23 -224 -86 -304 -168 -123 -124 -184 -257 -193
-420 -21 -382 291 -694 673 -673 336 19 604 301 604 637 0 406 -380 710 -780
624z m331 -66 c98 -36 157 -74 229 -147 67 -68 114 -145 146 -241 26 -77 26
-263 0 -340 -52 -154 -163 -287 -294 -352 -236 -119 -504 -77 -688 106 -105
105 -162 230 -171 377 -19 294 180 556 472 619 73 16 233 5 306 -22z"/>
<path d="M800 744 c-80 -90 -166 -188 -191 -216 l-45 -52 -115 92 c-113 92
-149 109 -149 74 0 -19 234 -214 264 -220 19 -4 418 445 414 466 -8 39 -41 12
-178 -144z"/>
</g>
</svg>
